# xmcd CD database file
#
# Track frame offsets:
#	150
#	37365
#	58428
#	84259
#	112309
#	140610
#	165583
#	204615
#	246148
#
# Disc length: 3599 seconds
#
# Revision: 0
# Processed by: cddbd v1.5.1PL0 Copyright (c) Steve Scherf et al.
# Submitted via: CDex 1.51
#
DISCID=8a0e0d09
DTITLE=Tim Jensen - A Mind for the Scenery
DYEAR=2004
DGENRE=Jazz
TTITLE0=Sausage
TTITLE1=Rusty Rayburn and Piggy Lee
TTITLE2=Green Dolphin Street
TTITLE3=My Back Pages
TTITLE4=Carson City
TTITLE5=Lament for Larry
TTITLE6=Fiasco
TTITLE7=Mambrino Flats
TTITLE8=Felpham's Vale
EXTD=YEAR: 2004
EXTT0=
EXTT1=
EXTT2=
EXTT3=
EXTT4=
EXTT5=
EXTT6=
EXTT7=
EXTT8=
PLAYORDER=
